<svg xmlns="http://www.w3.org/2000/svg" width="700" height="400"><rect width="700" height="400" x="0" y="0" fill="#FFFFFF" id="backgorund"/><g id="viz"><clipPath id="serieClipPath"><rect x="-50" y="-20" width="700" height="400"/></clipPath><g transform="translate(0,0)"><g transform="translate(50,20)" clip-path="url(#serieClipPath)"><g id="axis"><g transform="translate(0,360)" fill="none" font-size="10" font-family="sans-serif" text-anchor="middle"><path class="domain" stroke="currentColor" d="M0.5,6V0.5H635.5V6"/><g class="tick" opacity="1" transform="translate(0.5,0)"><line stroke="currentColor" y2="6"/><text fill="currentColor" y="9" dy="0.71em">08:30</text></g><g class="tick" opacity="1" transform="translate(53.416666666666664,0)"><line stroke="currentColor" y2="6"/><text fill="currentColor" y="9" dy="0.71em">08:45</text></g><g class="tick" opacity="1" transform="translate(106.33333333333333,0)"><line stroke="currentColor" y2="6"/><text fill="currentColor" y="9" dy="0.71em">09 PM</text></g><g class="tick" opacity="1" transform="translate(159.25,0)"><line stroke="currentColor" y2="6"/><text fill="currentColor" y="9" dy="0.71em">09:15</text></g><g class="tick" opacity="1" transform="translate(212.16666666666666,0)"><line stroke="currentColor" y2="6"/><text fill="currentColor" y="9" dy="0.71em">09:30</text></g><g class="tick" opacity="1" transform="translate(265.08333333333337,0)"><line stroke="currentColor" y2="6"/><text fill="currentColor" y="9" dy="0.71em">09:45</text></g><g class="tick" opacity="1" transform="translate(318,0)"><line stroke="currentColor" y2="6"/><text fill="currentColor" y="9" dy="0.71em">10 PM</text></g><g class="tick" opacity="1" transform="translate(370.9166666666667,0)"><line stroke="currentColor" y2="6"/><text fill="currentColor" y="9" dy="0.71em">10:15</text></g><g class="tick" opacity="1" transform="translate(423.8333333333333,0)"><line stroke="currentColor" y2="6"/><text fill="currentColor" y="9" dy="0.71em">10:30</text></g><g class="tick" opacity="1" transform="translate(476.75,0)"><line stroke="currentColor" y2="6"/><text fill="currentColor" y="9" dy="0.71em">10:45</text></g><g class="tick" opacity="1" transform="translate(529.6666666666667,0)"><line stroke="currentColor" y2="6"/><text fill="currentColor" y="9" dy="0.71em">11 PM</text></g><g class="tick" opacity="1" transform="translate(582.5833333333333,0)"><line stroke="currentColor" y2="6"/><text fill="currentColor" y="9" dy="0.71em">11:15</text></g><g class="tick" opacity="1" transform="translate(635.5,0)"><line stroke="currentColor" y2="6"/><text fill="currentColor" y="9" dy="0.71em">11:30</text></g><text x="635" dy="-5" text-anchor="end" style="font-family: Arial, sans-serif; font-size: 12px; fill: rgb(123, 123, 123); font-weight: bold;">Fecha</text></g><g transform="translate(0,0)" fill="none" font-size="10" font-family="sans-serif" text-anchor="end"><path class="domain" stroke="currentColor" d="M0.5,360.5V0.5"/><g class="tick" opacity="1" transform="translate(0,360.5)"><line stroke="currentColor" x2="-6"/><text fill="currentColor" x="-9" dy="0.32em">0</text></g><g class="tick" opacity="1" transform="translate(0,324.5)"><line stroke="currentColor" x2="-6"/><text fill="currentColor" x="-9" dy="0.32em">10</text></g><g class="tick" opacity="1" transform="translate(0,288.5)"><line stroke="currentColor" x2="-6"/><text fill="currentColor" x="-9" dy="0.32em">20</text></g><g class="tick" opacity="1" transform="translate(0,252.49999999999997)"><line stroke="currentColor" x2="-6"/><text fill="currentColor" x="-9" dy="0.32em">30</text></g><g class="tick" opacity="1" transform="translate(0,216.5)"><line stroke="currentColor" x2="-6"/><text fill="currentColor" x="-9" dy="0.32em">40</text></g><g class="tick" opacity="1" transform="translate(0,180.5)"><line stroke="currentColor" x2="-6"/><text fill="currentColor" x="-9" dy="0.32em">50</text></g><g class="tick" opacity="1" transform="translate(0,144.5)"><line stroke="currentColor" x2="-6"/><text fill="currentColor" x="-9" dy="0.32em">60</text></g><g class="tick" opacity="1" transform="translate(0,108.50000000000001)"><line stroke="currentColor" x2="-6"/><text fill="currentColor" x="-9" dy="0.32em">70</text></g><g class="tick" opacity="1" transform="translate(0,72.49999999999999)"><line stroke="currentColor" x2="-6"/><text fill="currentColor" x="-9" dy="0.32em">80</text></g><g class="tick" opacity="1" transform="translate(0,36.49999999999999)"><line stroke="currentColor" x2="-6"/><text fill="currentColor" x="-9" dy="0.32em">90</text></g><g class="tick" opacity="1" transform="translate(0,0.5)"><line stroke="currentColor" x2="-6"/><text fill="currentColor" x="-9" dy="0.32em">100</text></g><text x="4" text-anchor="start" dominant-baseline="hanging" style="font-family: Arial, sans-serif; font-size: 12px; fill: rgb(123, 123, 123); font-weight: bold;">Valor</text></g></g><g id="viz"><g id="Javier Milei"><path d="M0,338.4C1.763888888888889,338.4,1.763888888888889,327.6,3.527777777777778,327.6C5.291666666666667,327.6,5.291666666666667,327.6,7.055555555555556,327.6C8.819444444444445,327.6,8.819444444444445,331.2,10.583333333333334,331.2C12.347222222222223,331.2,12.347222222222223,334.79999999999995,14.111111111111112,334.79999999999995C15.875,334.79999999999995,15.875,334.79999999999995,17.63888888888889,334.79999999999995C19.40277777777778,334.79999999999995,19.40277777777778,331.2,21.166666666666668,331.2C22.930555555555557,331.2,22.930555555555557,327.6,24.694444444444446,327.6C26.458333333333336,327.6,26.458333333333336,327.6,28.222222222222225,327.6C29.986111111111114,327.6,29.986111111111114,331.2,31.75,331.2C33.513888888888886,331.2,33.513888888888886,320.4,35.27777777777778,320.4C37.04166666666667,320.4,37.04166666666667,331.2,38.80555555555556,331.2C40.56944444444444,331.2,40.56944444444444,331.2,42.333333333333336,331.2C44.09722222222222,331.2,44.09722222222222,320.4,45.86111111111111,320.4C47.625,320.4,47.625,334.79999999999995,49.38888888888889,334.79999999999995C51.15277777777778,334.79999999999995,51.15277777777778,342,52.916666666666664,342C54.68055555555556,342,54.68055555555556,334.79999999999995,56.44444444444445,334.79999999999995C58.208333333333336,334.79999999999995,58.208333333333336,345.59999999999997,59.97222222222222,345.59999999999997C61.736111111111114,345.59999999999997,61.736111111111114,345.59999999999997,63.5,345.59999999999997C65.26388888888889,345.59999999999997,65.26388888888889,331.2,67.02777777777777,331.2C68.79166666666666,331.2,68.79166666666666,324,70.55555555555556,324C72.31944444444444,324,72.31944444444444,320.4,74.08333333333333,320.4C75.84722222222223,320.4,75.84722222222223,316.8,77.61111111111111,316.8C79.375,316.8,79.375,331.2,81.13888888888889,331.2C82.90277777777777,331.2,82.90277777777777,331.2,84.66666666666667,331.2C86.43055555555556,331.2,86.43055555555556,334.79999999999995,88.19444444444444,334.79999999999995C89.95833333333333,334.79999999999995,89.95833333333333,316.8,91.72222222222221,316.8C93.48611111111111,316.8,93.48611111111111,316.8,95.25,316.8C97.01388888888889,316.8,97.01388888888889,331.2,98.77777777777779,331.2C100.54166666666667,331.2,100.54166666666667,320.4,102.30555555555556,320.4C104.06944444444444,320.4,104.06944444444444,324,105.83333333333333,324C107.59722222222223,324,107.59722222222223,331.2,109.36111111111111,331.2C111.125,331.2,111.125,327.6,112.8888888888889,327.6C114.65277777777777,327.6,114.65277777777777,327.6,116.41666666666666,327.6C118.18055555555554,327.6,118.18055555555554,331.2,119.94444444444444,331.2C121.70833333333334,331.2,121.70833333333334,306,123.47222222222223,306C125.23611111111111,306,125.23611111111111,288,127,288C128.76388888888889,288,128.76388888888889,316.8,130.52777777777777,316.8C132.29166666666666,316.8,132.29166666666666,306,134.05555555555554,306C135.81944444444446,306,135.81944444444446,320.4,137.58333333333334,320.4C139.34722222222223,320.4,139.34722222222223,324,141.11111111111111,324C142.875,324,142.875,309.6,144.63888888888889,309.6C146.40277777777777,309.6,146.40277777777777,327.6,148.16666666666666,327.6C149.93055555555554,327.6,149.93055555555554,331.2,151.69444444444446,331.2C153.45833333333334,331.2,153.45833333333334,324,155.22222222222223,324C156.98611111111111,324,156.98611111111111,334.79999999999995,158.75,334.79999999999995C160.51388888888889,334.79999999999995,160.51388888888889,313.2,162.27777777777777,313.2C164.04166666666669,313.2,164.04166666666669,306,165.80555555555557,306C167.56944444444446,306,167.56944444444446,327.6,169.33333333333334,327.6C171.09722222222223,327.6,171.09722222222223,320.4,172.8611111111111,320.4C174.625,320.4,174.625,320.4,176.38888888888889,320.4C178.15277777777777,320.4,178.15277777777777,309.6,179.91666666666666,309.6C181.68055555555554,309.6,181.68055555555554,324,183.44444444444443,324C185.20833333333331,324,185.20833333333331,320.4,186.97222222222223,320.4C188.73611111111111,320.4,188.73611111111111,331.2,190.5,331.2C192.2638888888889,331.2,192.2638888888889,316.8,194.0277777777778,316.8C195.79166666666669,316.8,195.79166666666669,302.4,197.55555555555557,302.4C199.31944444444446,302.4,199.31944444444446,244.79999999999998,201.08333333333331,244.79999999999998C202.84722222222223,244.79999999999998,202.84722222222223,230.4,204.61111111111111,230.4C206.375,230.4,206.375,187.20000000000002,208.13888888888889,187.20000000000002C209.90277777777777,187.20000000000002,209.90277777777777,187.20000000000002,211.66666666666666,187.20000000000002C213.43055555555554,187.20000000000002,213.43055555555554,234,215.19444444444446,234C216.95833333333334,234,216.95833333333334,251.99999999999997,218.72222222222223,251.99999999999997C220.48611111111111,251.99999999999997,220.48611111111111,270,222.25,270C224.0138888888889,270,224.0138888888889,280.8,225.7777777777778,280.8C227.54166666666669,280.8,227.54166666666669,273.6,229.30555555555554,273.6C231.06944444444443,273.6,231.06944444444443,298.8,232.83333333333331,298.8C234.59722222222223,298.8,234.59722222222223,309.6,236.36111111111111,309.6C238.125,309.6,238.125,302.4,239.88888888888889,302.4C241.65277777777777,302.4,241.65277777777777,320.4,243.41666666666669,320.4C245.18055555555557,320.4,245.18055555555557,316.8,246.94444444444446,316.8C248.70833333333331,316.8,248.70833333333331,298.8,250.4722222222222,298.8C252.2361111111111,298.8,252.2361111111111,295.20000000000005,254,295.20000000000005C255.76388888888889,295.20000000000005,255.76388888888889,306,257.52777777777777,306C259.29166666666663,306,259.29166666666663,313.2,261.05555555555554,313.2C262.81944444444446,313.2,262.81944444444446,302.4,264.58333333333337,302.4C266.34722222222223,302.4,266.34722222222223,309.6,268.1111111111111,309.6C269.875,309.6,269.875,266.4,271.63888888888886,266.4C273.40277777777777,266.4,273.40277777777777,205.20000000000002,275.1666666666667,205.20000000000002C276.93055555555554,205.20000000000002,276.93055555555554,259.2,278.69444444444446,259.2C280.45833333333337,259.2,280.45833333333337,288,282.22222222222223,288C283.9861111111111,288,283.9861111111111,273.6,285.75,273.6C287.5138888888889,273.6,287.5138888888889,251.99999999999997,289.27777777777777,251.99999999999997C291.0416666666667,251.99999999999997,291.0416666666667,226.8,292.8055555555556,226.8C294.56944444444446,226.8,294.56944444444446,248.39999999999998,296.3333333333333,248.39999999999998C298.0972222222222,248.39999999999998,298.0972222222222,277.2,299.8611111111111,277.2C301.625,277.2,301.625,280.8,303.3888888888889,280.8C305.1527777777778,280.8,305.1527777777778,280.8,306.9166666666667,280.8C308.68055555555554,280.8,308.68055555555554,277.2,310.44444444444446,277.2C312.20833333333337,277.2,312.20833333333337,251.99999999999997,313.97222222222223,251.99999999999997C315.7361111111111,251.99999999999997,315.7361111111111,295.20000000000005,317.5,295.20000000000005C319.2638888888889,295.20000000000005,319.2638888888889,280.8,321.02777777777777,280.8C322.79166666666663,280.8,322.79166666666663,277.2,324.55555555555554,277.2C326.31944444444446,277.2,326.31944444444446,288,328.08333333333337,288C329.8472222222223,288,329.8472222222223,266.4,331.61111111111114,266.4C333.375,266.4,333.375,280.8,335.1388888888889,280.8C336.9027777777778,280.8,336.9027777777778,273.6,338.6666666666667,273.6C340.43055555555554,273.6,340.43055555555554,306,342.1944444444444,306C343.95833333333326,306,343.95833333333326,306,345.7222222222222,306C347.4861111111111,306,347.4861111111111,302.4,349.25,302.4C351.0138888888889,302.4,351.0138888888889,298.8,352.77777777777777,298.8C354.54166666666663,298.8,354.54166666666663,313.2,356.30555555555554,313.2C358.06944444444446,313.2,358.06944444444446,309.6,359.8333333333333,309.6C361.5972222222222,309.6,361.5972222222222,298.8,363.3611111111111,298.8C365.125,298.8,365.125,309.6,366.88888888888886,309.6C368.65277777777777,309.6,368.65277777777777,251.99999999999997,370.4166666666667,251.99999999999997C372.18055555555554,251.99999999999997,372.18055555555554,244.79999999999998,373.94444444444446,244.79999999999998C375.70833333333337,244.79999999999998,375.70833333333337,266.4,377.47222222222223,266.4C379.2361111111111,266.4,379.2361111111111,205.20000000000002,381,205.20000000000002C382.7638888888889,205.20000000000002,382.7638888888889,251.99999999999997,384.52777777777777,251.99999999999997C386.2916666666667,251.99999999999997,386.2916666666667,273.6,388.0555555555556,273.6C389.81944444444446,273.6,389.81944444444446,262.8,391.58333333333337,262.8C393.3472222222223,262.8,393.3472222222223,284.40000000000003,395.11111111111114,284.40000000000003C396.875,284.40000000000003,396.875,277.2,398.63888888888886,277.2C400.4027777777777,277.2,400.4027777777777,241.2,402.16666666666663,241.2C403.93055555555554,241.2,403.93055555555554,259.2,405.6944444444444,259.2C407.4583333333333,259.2,407.4583333333333,295.20000000000005,409.22222222222223,295.20000000000005C410.9861111111111,295.20000000000005,410.9861111111111,259.2,412.75,259.2C414.5138888888889,259.2,414.5138888888889,251.99999999999997,416.27777777777777,251.99999999999997C418.04166666666663,251.99999999999997,418.04166666666663,291.6,419.80555555555554,291.6C421.56944444444446,291.6,421.56944444444446,273.6,423.3333333333333,273.6C425.09722222222223,273.6,425.09722222222223,277.2,426.86111111111114,277.2C428.625,277.2,428.625,241.2,430.3888888888889,241.2C432.1527777777778,241.2,432.1527777777778,270,433.9166666666667,270C435.68055555555554,270,435.68055555555554,298.8,437.44444444444446,298.8C439.20833333333337,298.8,439.20833333333337,270,440.97222222222223,270C442.7361111111111,270,442.7361111111111,262.8,444.5,262.8C446.2638888888889,262.8,446.2638888888889,284.40000000000003,448.0277777777778,284.40000000000003C449.79166666666674,284.40000000000003,449.79166666666674,280.8,451.5555555555556,280.8C453.31944444444446,280.8,453.31944444444446,291.6,455.0833333333333,291.6C456.8472222222222,291.6,456.8472222222222,295.20000000000005,458.6111111111111,295.20000000000005C460.375,295.20000000000005,460.375,291.6,462.13888888888886,291.6C463.9027777777777,291.6,463.9027777777777,309.6,465.66666666666663,309.6C467.43055555555554,309.6,467.43055555555554,284.40000000000003,469.19444444444446,284.40000000000003C470.95833333333337,284.40000000000003,470.95833333333337,280.8,472.72222222222223,280.8C474.4861111111111,280.8,474.4861111111111,262.8,476.25,262.8C478.0138888888889,262.8,478.0138888888889,248.39999999999998,479.77777777777777,248.39999999999998C481.54166666666663,248.39999999999998,481.54166666666663,244.79999999999998,483.30555555555554,244.79999999999998C485.06944444444446,244.79999999999998,485.06944444444446,262.8,486.83333333333337,262.8C488.5972222222223,262.8,488.5972222222223,270,490.36111111111114,270C492.125,270,492.125,273.6,493.8888888888889,273.6C495.6527777777778,273.6,495.6527777777778,273.6,497.4166666666667,273.6C499.18055555555554,273.6,499.18055555555554,270,500.9444444444444,270C502.70833333333326,270,502.70833333333326,284.40000000000003,504.4722222222222,284.40000000000003C506.2361111111111,284.40000000000003,506.2361111111111,280.8,508,280.8C509.7638888888889,280.8,509.7638888888889,302.4,511.52777777777777,302.4C513.2916666666666,302.4,513.2916666666666,298.8,515.0555555555555,298.8C516.8194444444445,298.8,516.8194444444445,241.2,518.5833333333334,241.2C520.3472222222222,241.2,520.3472222222222,270,522.1111111111111,270C523.875,270,523.875,266.4,525.6388888888888,266.4C527.4027777777778,266.4,527.4027777777778,284.40000000000003,529.1666666666667,284.40000000000003C530.9305555555557,284.40000000000003,530.9305555555557,262.8,532.6944444444445,262.8C534.4583333333333,262.8,534.4583333333333,270,536.2222222222222,270C537.9861111111111,270,537.9861111111111,277.2,539.75,277.2C541.5138888888889,277.2,541.5138888888889,291.6,543.2777777777777,291.6C545.0416666666666,291.6,545.0416666666666,273.6,546.8055555555555,273.6C548.5694444444445,273.6,548.5694444444445,280.8,550.3333333333334,280.8C552.0972222222222,280.8,552.0972222222222,277.2,553.8611111111111,277.2C555.625,277.2,555.625,270,557.3888888888889,270C559.1527777777778,270,559.1527777777778,266.4,560.9166666666666,266.4C562.6805555555555,266.4,562.6805555555555,277.2,564.4444444444445,277.2C566.2083333333334,277.2,566.2083333333334,291.6,567.9722222222223,291.6C569.7361111111111,291.6,569.7361111111111,262.8,571.5,262.8C573.2638888888889,262.8,573.2638888888889,291.6,575.0277777777778,291.6C576.7916666666667,291.6,576.7916666666667,288,578.5555555555555,288C580.3194444444443,288,580.3194444444443,277.2,582.0833333333333,277.2C583.8472222222222,277.2,583.8472222222222,295.20000000000005,585.6111111111112,295.20000000000005C587.375,295.20000000000005,587.375,288,589.1388888888889,288" stroke="#bd10e0" fill="none"/><text font-family="sans-serif" font-size="10" class="labels" x="208.13888888888889" y="187.20000000000002" dx="0" dy="-4" text-anchor="middle">Javier Milei</text></g><g id="Sergio Massa"><path d="M0,356.4C1.763888888888889,356.4,1.763888888888889,352.8,3.527777777777778,352.8C5.291666666666667,352.8,5.291666666666667,352.8,7.055555555555556,352.8C8.819444444444445,352.8,8.819444444444445,352.8,10.583333333333334,352.8C12.347222222222223,352.8,12.347222222222223,345.59999999999997,14.111111111111112,345.59999999999997C15.875,345.59999999999997,15.875,356.4,17.63888888888889,356.4C19.40277777777778,356.4,19.40277777777778,349.2,21.166666666666668,349.2C22.930555555555557,349.2,22.930555555555557,349.2,24.694444444444446,349.2C26.458333333333336,349.2,26.458333333333336,356.4,28.222222222222225,356.4C29.986111111111114,356.4,29.986111111111114,356.4,31.75,356.4C33.513888888888886,356.4,33.513888888888886,352.8,35.27777777777778,352.8C37.04166666666667,352.8,37.04166666666667,349.2,38.80555555555556,349.2C40.56944444444444,349.2,40.56944444444444,356.4,42.333333333333336,356.4C44.09722222222222,356.4,44.09722222222222,356.4,45.86111111111111,356.4C47.625,356.4,47.625,352.8,49.38888888888889,352.8C51.15277777777778,352.8,51.15277777777778,352.8,52.916666666666664,352.8C54.68055555555556,352.8,54.68055555555556,349.2,56.44444444444445,349.2C58.208333333333336,349.2,58.208333333333336,356.4,59.97222222222222,356.4C61.736111111111114,356.4,61.736111111111114,352.8,63.5,352.8C65.26388888888889,352.8,65.26388888888889,356.4,67.02777777777777,356.4C68.79166666666666,356.4,68.79166666666666,352.8,70.55555555555556,352.8C72.31944444444444,352.8,72.31944444444444,349.2,74.08333333333333,349.2C75.84722222222223,349.2,75.84722222222223,345.59999999999997,77.61111111111111,345.59999999999997C79.375,345.59999999999997,79.375,349.2,81.13888888888889,349.2C82.90277777777777,349.2,82.90277777777777,352.8,84.66666666666667,352.8C86.43055555555556,352.8,86.43055555555556,352.8,88.19444444444444,352.8C89.95833333333333,352.8,89.95833333333333,352.8,91.72222222222221,352.8C93.48611111111111,352.8,93.48611111111111,349.2,95.25,349.2C97.01388888888889,349.2,97.01388888888889,352.8,98.77777777777779,352.8C100.54166666666667,352.8,100.54166666666667,349.2,102.30555555555556,349.2C104.06944444444444,349.2,104.06944444444444,345.59999999999997,105.83333333333333,345.59999999999997C107.59722222222223,345.59999999999997,107.59722222222223,349.2,109.36111111111111,349.2C111.125,349.2,111.125,352.8,112.8888888888889,352.8C114.65277777777777,352.8,114.65277777777777,356.4,116.41666666666666,356.4C118.18055555555554,356.4,118.18055555555554,356.4,119.94444444444444,356.4C121.70833333333334,356.4,121.70833333333334,349.2,123.47222222222223,349.2C125.23611111111111,349.2,125.23611111111111,352.8,127,352.8C128.76388888888889,352.8,128.76388888888889,352.8,130.52777777777777,352.8C132.29166666666666,352.8,132.29166666666666,331.2,134.05555555555554,331.2C135.81944444444446,331.2,135.81944444444446,313.2,137.58333333333334,313.2C139.34722222222223,313.2,139.34722222222223,320.4,141.11111111111111,320.4C142.875,320.4,142.875,338.4,144.63888888888889,338.4C146.40277777777777,338.4,146.40277777777777,342,148.16666666666666,342C149.93055555555554,342,149.93055555555554,338.4,151.69444444444446,338.4C153.45833333333334,338.4,153.45833333333334,349.2,155.22222222222223,349.2C156.98611111111111,349.2,156.98611111111111,345.59999999999997,158.75,345.59999999999997C160.51388888888889,345.59999999999997,160.51388888888889,349.2,162.27777777777777,349.2C164.04166666666669,349.2,164.04166666666669,320.4,165.80555555555557,320.4C167.56944444444446,320.4,167.56944444444446,309.6,169.33333333333334,309.6C171.09722222222223,309.6,171.09722222222223,327.6,172.8611111111111,327.6C174.625,327.6,174.625,284.40000000000003,176.38888888888889,284.40000000000003C178.15277777777777,284.40000000000003,178.15277777777777,259.2,179.91666666666666,259.2C181.68055555555554,259.2,181.68055555555554,291.6,183.44444444444443,291.6C185.20833333333331,291.6,185.20833333333331,266.4,186.97222222222223,266.4C188.73611111111111,266.4,188.73611111111111,291.6,190.5,291.6C192.2638888888889,291.6,192.2638888888889,302.4,194.0277777777778,302.4C195.79166666666669,302.4,195.79166666666669,313.2,197.55555555555557,313.2C199.31944444444446,313.2,199.31944444444446,320.4,201.08333333333331,320.4C202.84722222222223,320.4,202.84722222222223,334.79999999999995,204.61111111111111,334.79999999999995C206.375,334.79999999999995,206.375,334.79999999999995,208.13888888888889,334.79999999999995C209.90277777777777,334.79999999999995,209.90277777777777,324,211.66666666666666,324C213.43055555555554,324,213.43055555555554,331.2,215.19444444444446,331.2C216.95833333333334,331.2,216.95833333333334,316.8,218.72222222222223,316.8C220.48611111111111,316.8,220.48611111111111,306,222.25,306C224.0138888888889,306,224.0138888888889,280.8,225.7777777777778,280.8C227.54166666666669,280.8,227.54166666666669,262.8,229.30555555555554,262.8C231.06944444444443,262.8,231.06944444444443,273.6,232.83333333333331,273.6C234.59722222222223,273.6,234.59722222222223,302.4,236.36111111111111,302.4C238.125,302.4,238.125,298.8,239.88888888888889,298.8C241.65277777777777,298.8,241.65277777777777,266.4,243.41666666666669,266.4C245.18055555555557,266.4,245.18055555555557,291.6,246.94444444444446,291.6C248.70833333333331,291.6,248.70833333333331,291.6,250.4722222222222,291.6C252.2361111111111,291.6,252.2361111111111,273.6,254,273.6C255.76388888888889,273.6,255.76388888888889,288,257.52777777777777,288C259.29166666666663,288,259.29166666666663,288,261.05555555555554,288C262.81944444444446,288,262.81944444444446,295.20000000000005,264.58333333333337,295.20000000000005C266.34722222222223,295.20000000000005,266.34722222222223,324,268.1111111111111,324C269.875,324,269.875,316.8,271.63888888888886,316.8C273.40277777777777,316.8,273.40277777777777,309.6,275.1666666666667,309.6C276.93055555555554,309.6,276.93055555555554,327.6,278.69444444444446,327.6C280.45833333333337,327.6,280.45833333333337,345.59999999999997,282.22222222222223,345.59999999999997C283.9861111111111,345.59999999999997,283.9861111111111,313.2,285.75,313.2C287.5138888888889,313.2,287.5138888888889,295.20000000000005,289.27777777777777,295.20000000000005C291.0416666666667,295.20000000000005,291.0416666666667,313.2,292.8055555555556,313.2C294.56944444444446,313.2,294.56944444444446,316.8,296.3333333333333,316.8C298.0972222222222,316.8,298.0972222222222,295.20000000000005,299.8611111111111,295.20000000000005C301.625,295.20000000000005,301.625,324,303.3888888888889,324C305.1527777777778,324,305.1527777777778,320.4,306.9166666666667,320.4C308.68055555555554,320.4,308.68055555555554,313.2,310.44444444444446,313.2C312.20833333333337,313.2,312.20833333333337,320.4,313.97222222222223,320.4C315.7361111111111,320.4,315.7361111111111,324,317.5,324C319.2638888888889,324,319.2638888888889,320.4,321.02777777777777,320.4C322.79166666666663,320.4,322.79166666666663,309.6,324.55555555555554,309.6C326.31944444444446,309.6,326.31944444444446,327.6,328.08333333333337,327.6C329.8472222222223,327.6,329.8472222222223,313.2,331.61111111111114,313.2C333.375,313.2,333.375,320.4,335.1388888888889,320.4C336.9027777777778,320.4,336.9027777777778,313.2,338.6666666666667,313.2C340.43055555555554,313.2,340.43055555555554,331.2,342.1944444444444,331.2C343.95833333333326,331.2,343.95833333333326,313.2,345.7222222222222,313.2C347.4861111111111,313.2,347.4861111111111,291.6,349.25,291.6C351.0138888888889,291.6,351.0138888888889,284.40000000000003,352.77777777777777,284.40000000000003C354.54166666666663,284.40000000000003,354.54166666666663,295.20000000000005,356.30555555555554,295.20000000000005C358.06944444444446,295.20000000000005,358.06944444444446,309.6,359.8333333333333,309.6C361.5972222222222,309.6,361.5972222222222,309.6,363.3611111111111,309.6C365.125,309.6,365.125,309.6,366.88888888888886,309.6C368.65277777777777,309.6,368.65277777777777,327.6,370.4166666666667,327.6C372.18055555555554,327.6,372.18055555555554,320.4,373.94444444444446,320.4C375.70833333333337,320.4,375.70833333333337,327.6,377.47222222222223,327.6C379.2361111111111,327.6,379.2361111111111,338.4,381,338.4C382.7638888888889,338.4,382.7638888888889,316.8,384.52777777777777,316.8C386.2916666666667,316.8,386.2916666666667,331.2,388.0555555555556,331.2C389.81944444444446,331.2,389.81944444444446,302.4,391.58333333333337,302.4C393.3472222222223,302.4,393.3472222222223,309.6,395.11111111111114,309.6C396.875,309.6,396.875,313.2,398.63888888888886,313.2C400.4027777777777,313.2,400.4027777777777,331.2,402.16666666666663,331.2C403.93055555555554,331.2,403.93055555555554,327.6,405.6944444444444,327.6C407.4583333333333,327.6,407.4583333333333,320.4,409.22222222222223,320.4C410.9861111111111,320.4,410.9861111111111,270,412.75,270C414.5138888888889,270,414.5138888888889,273.6,416.27777777777777,273.6C418.04166666666663,273.6,418.04166666666663,309.6,419.80555555555554,309.6C421.56944444444446,309.6,421.56944444444446,298.8,423.3333333333333,298.8C425.09722222222223,298.8,425.09722222222223,288,426.86111111111114,288C428.625,288,428.625,306,430.3888888888889,306C432.1527777777778,306,432.1527777777778,316.8,433.9166666666667,316.8C435.68055555555554,316.8,435.68055555555554,320.4,437.44444444444446,320.4C439.20833333333337,320.4,439.20833333333337,320.4,440.97222222222223,320.4C442.7361111111111,320.4,442.7361111111111,306,444.5,306C446.2638888888889,306,446.2638888888889,302.4,448.0277777777778,302.4C449.79166666666674,302.4,449.79166666666674,320.4,451.5555555555556,320.4C453.31944444444446,320.4,453.31944444444446,291.6,455.0833333333333,291.6C456.8472222222222,291.6,456.8472222222222,316.8,458.6111111111111,316.8C460.375,316.8,460.375,338.4,462.13888888888886,338.4C463.9027777777777,338.4,463.9027777777777,316.8,465.66666666666663,316.8C467.43055555555554,316.8,467.43055555555554,273.6,469.19444444444446,273.6C470.95833333333337,273.6,470.95833333333337,277.2,472.72222222222223,277.2C474.4861111111111,277.2,474.4861111111111,262.8,476.25,262.8C478.0138888888889,262.8,478.0138888888889,291.6,479.77777777777777,291.6C481.54166666666663,291.6,481.54166666666663,306,483.30555555555554,306C485.06944444444446,306,485.06944444444446,309.6,486.83333333333337,309.6C488.5972222222223,309.6,488.5972222222223,302.4,490.36111111111114,302.4C492.125,302.4,492.125,313.2,493.8888888888889,313.2C495.6527777777778,313.2,495.6527777777778,306,497.4166666666667,306C499.18055555555554,306,499.18055555555554,313.2,500.9444444444444,313.2C502.70833333333326,313.2,502.70833333333326,324,504.4722222222222,324C506.2361111111111,324,506.2361111111111,320.4,508,320.4C509.7638888888889,320.4,509.7638888888889,324,511.52777777777777,324C513.2916666666666,324,513.2916666666666,327.6,515.0555555555555,327.6C516.8194444444445,327.6,516.8194444444445,327.6,518.5833333333334,327.6C520.3472222222222,327.6,520.3472222222222,320.4,522.1111111111111,320.4C523.875,320.4,523.875,291.6,525.6388888888888,291.6C527.4027777777778,291.6,527.4027777777778,251.99999999999997,529.1666666666667,251.99999999999997C530.9305555555557,251.99999999999997,530.9305555555557,298.8,532.6944444444445,298.8C534.4583333333333,298.8,534.4583333333333,309.6,536.2222222222222,309.6C537.9861111111111,309.6,537.9861111111111,309.6,539.75,309.6C541.5138888888889,309.6,541.5138888888889,306,543.2777777777777,306C545.0416666666666,306,545.0416666666666,316.8,546.8055555555555,316.8C548.5694444444445,316.8,548.5694444444445,320.4,550.3333333333334,320.4C552.0972222222222,320.4,552.0972222222222,313.2,553.8611111111111,313.2C555.625,313.2,555.625,324,557.3888888888889,324C559.1527777777778,324,559.1527777777778,324,560.9166666666666,324C562.6805555555555,324,562.6805555555555,313.2,564.4444444444445,313.2C566.2083333333334,313.2,566.2083333333334,324,567.9722222222223,324C569.7361111111111,324,569.7361111111111,320.4,571.5,320.4C573.2638888888889,320.4,573.2638888888889,324,575.0277777777778,324C576.7916666666667,324,576.7916666666667,316.8,578.5555555555555,316.8C580.3194444444443,316.8,580.3194444444443,320.4,582.0833333333333,320.4C583.8472222222222,320.4,583.8472222222222,324,585.6111111111112,324C587.375,324,587.375,316.8,589.1388888888889,316.8" stroke="#4a90e2" fill="none"/><text font-family="sans-serif" font-size="10" class="labels" x="529.1666666666667" y="251.99999999999997" dx="0" dy="-4" text-anchor="middle">Sergio Massa</text></g><g id="Patricia Bullrich"><path d="M0,352.8C1.763888888888889,352.8,1.763888888888889,349.2,3.527777777777778,349.2C5.291666666666667,349.2,5.291666666666667,352.8,7.055555555555556,352.8C8.819444444444445,352.8,8.819444444444445,345.59999999999997,10.583333333333334,345.59999999999997C12.347222222222223,345.59999999999997,12.347222222222223,356.4,14.111111111111112,356.4C15.875,356.4,15.875,349.2,17.63888888888889,349.2C19.40277777777778,349.2,19.40277777777778,352.8,21.166666666666668,352.8C22.930555555555557,352.8,22.930555555555557,352.8,24.694444444444446,352.8C26.458333333333336,352.8,26.458333333333336,352.8,28.222222222222225,352.8C29.986111111111114,352.8,29.986111111111114,352.8,31.75,352.8C33.513888888888886,352.8,33.513888888888886,345.59999999999997,35.27777777777778,345.59999999999997C37.04166666666667,345.59999999999997,37.04166666666667,356.4,38.80555555555556,356.4C40.56944444444444,356.4,40.56944444444444,349.2,42.333333333333336,349.2C44.09722222222222,349.2,44.09722222222222,356.4,45.86111111111111,356.4C47.625,356.4,47.625,352.8,49.38888888888889,352.8C51.15277777777778,352.8,51.15277777777778,352.8,52.916666666666664,352.8C54.68055555555556,352.8,54.68055555555556,352.8,56.44444444444445,352.8C58.208333333333336,352.8,58.208333333333336,352.8,59.97222222222222,352.8C61.736111111111114,352.8,61.736111111111114,345.59999999999997,63.5,345.59999999999997C65.26388888888889,345.59999999999997,65.26388888888889,349.2,67.02777777777777,349.2C68.79166666666666,349.2,68.79166666666666,352.8,70.55555555555556,352.8C72.31944444444444,352.8,72.31944444444444,356.4,74.08333333333333,356.4C75.84722222222223,356.4,75.84722222222223,345.59999999999997,77.61111111111111,345.59999999999997C79.375,345.59999999999997,79.375,349.2,81.13888888888889,349.2C82.90277777777777,349.2,82.90277777777777,345.59999999999997,84.66666666666667,345.59999999999997C86.43055555555556,345.59999999999997,86.43055555555556,349.2,88.19444444444444,349.2C89.95833333333333,349.2,89.95833333333333,349.2,91.72222222222221,349.2C93.48611111111111,349.2,93.48611111111111,352.8,95.25,352.8C97.01388888888889,352.8,97.01388888888889,352.8,98.77777777777779,352.8C100.54166666666667,352.8,100.54166666666667,349.2,102.30555555555556,349.2C104.06944444444444,349.2,104.06944444444444,349.2,105.83333333333333,349.2C107.59722222222223,349.2,107.59722222222223,352.8,109.36111111111111,352.8C111.125,352.8,111.125,352.8,112.8888888888889,352.8C114.65277777777777,352.8,114.65277777777777,352.8,116.41666666666666,352.8C118.18055555555554,352.8,118.18055555555554,349.2,119.94444444444444,349.2C121.70833333333334,349.2,121.70833333333334,345.59999999999997,123.47222222222223,345.59999999999997C125.23611111111111,345.59999999999997,125.23611111111111,352.8,127,352.8C128.76388888888889,352.8,128.76388888888889,331.2,130.52777777777777,331.2C132.29166666666666,331.2,132.29166666666666,334.79999999999995,134.05555555555554,334.79999999999995C135.81944444444446,334.79999999999995,135.81944444444446,345.59999999999997,137.58333333333334,345.59999999999997C139.34722222222223,345.59999999999997,139.34722222222223,345.59999999999997,141.11111111111111,345.59999999999997C142.875,345.59999999999997,142.875,345.59999999999997,144.63888888888889,345.59999999999997C146.40277777777777,345.59999999999997,146.40277777777777,334.79999999999995,148.16666666666666,334.79999999999995C149.93055555555554,334.79999999999995,149.93055555555554,295.20000000000005,151.69444444444446,295.20000000000005C153.45833333333334,295.20000000000005,153.45833333333334,295.20000000000005,155.22222222222223,295.20000000000005C156.98611111111111,295.20000000000005,156.98611111111111,309.6,158.75,309.6C160.51388888888889,309.6,160.51388888888889,316.8,162.27777777777777,316.8C164.04166666666669,316.8,164.04166666666669,295.20000000000005,165.80555555555557,295.20000000000005C167.56944444444446,295.20000000000005,167.56944444444446,212.40000000000003,169.33333333333334,212.40000000000003C171.09722222222223,212.40000000000003,171.09722222222223,266.4,172.8611111111111,266.4C174.625,266.4,174.625,288,176.38888888888889,288C178.15277777777777,288,178.15277777777777,306,179.91666666666666,306C181.68055555555554,306,181.68055555555554,320.4,183.44444444444443,320.4C185.20833333333331,320.4,185.20833333333331,306,186.97222222222223,306C188.73611111111111,306,188.73611111111111,212.40000000000003,190.5,212.40000000000003C192.2638888888889,212.40000000000003,192.2638888888889,259.2,194.0277777777778,259.2C195.79166666666669,259.2,195.79166666666669,298.8,197.55555555555557,298.8C199.31944444444446,298.8,199.31944444444446,316.8,201.08333333333331,316.8C202.84722222222223,316.8,202.84722222222223,316.8,204.61111111111111,316.8C206.375,316.8,206.375,302.4,208.13888888888889,302.4C209.90277777777777,302.4,209.90277777777777,309.6,211.66666666666666,309.6C213.43055555555554,309.6,213.43055555555554,320.4,215.19444444444446,320.4C216.95833333333334,320.4,216.95833333333334,316.8,218.72222222222223,316.8C220.48611111111111,316.8,220.48611111111111,306,222.25,306C224.0138888888889,306,224.0138888888889,316.8,225.7777777777778,316.8C227.54166666666669,316.8,227.54166666666669,313.2,229.30555555555554,313.2C231.06944444444443,313.2,231.06944444444443,324,232.83333333333331,324C234.59722222222223,324,234.59722222222223,338.4,236.36111111111111,338.4C238.125,338.4,238.125,338.4,239.88888888888889,338.4C241.65277777777777,338.4,241.65277777777777,320.4,243.41666666666669,320.4C245.18055555555557,320.4,245.18055555555557,302.4,246.94444444444446,302.4C248.70833333333331,302.4,248.70833333333331,313.2,250.4722222222222,313.2C252.2361111111111,313.2,252.2361111111111,331.2,254,331.2C255.76388888888889,331.2,255.76388888888889,331.2,257.52777777777777,331.2C259.29166666666663,331.2,259.29166666666663,338.4,261.05555555555554,338.4C262.81944444444446,338.4,262.81944444444446,320.4,264.58333333333337,320.4C266.34722222222223,320.4,266.34722222222223,331.2,268.1111111111111,331.2C269.875,331.2,269.875,324,271.63888888888886,324C273.40277777777777,324,273.40277777777777,327.6,275.1666666666667,327.6C276.93055555555554,327.6,276.93055555555554,334.79999999999995,278.69444444444446,334.79999999999995C280.45833333333337,334.79999999999995,280.45833333333337,342,282.22222222222223,342C283.9861111111111,342,283.9861111111111,342,285.75,342C287.5138888888889,342,287.5138888888889,298.8,289.27777777777777,298.8C291.0416666666667,298.8,291.0416666666667,273.6,292.8055555555556,273.6C294.56944444444446,273.6,294.56944444444446,298.8,296.3333333333333,298.8C298.0972222222222,298.8,298.0972222222222,313.2,299.8611111111111,313.2C301.625,313.2,301.625,316.8,303.3888888888889,316.8C305.1527777777778,316.8,305.1527777777778,320.4,306.9166666666667,320.4C308.68055555555554,320.4,308.68055555555554,327.6,310.44444444444446,327.6C312.20833333333337,327.6,312.20833333333337,302.4,313.97222222222223,302.4C315.7361111111111,302.4,315.7361111111111,306,317.5,306C319.2638888888889,306,319.2638888888889,327.6,321.02777777777777,327.6C322.79166666666663,327.6,322.79166666666663,324,324.55555555555554,324C326.31944444444446,324,326.31944444444446,327.6,328.08333333333337,327.6C329.8472222222223,327.6,329.8472222222223,316.8,331.61111111111114,316.8C333.375,316.8,333.375,320.4,335.1388888888889,320.4C336.9027777777778,320.4,336.9027777777778,324,338.6666666666667,324C340.43055555555554,324,340.43055555555554,324,342.1944444444444,324C343.95833333333326,324,343.95833333333326,320.4,345.7222222222222,320.4C347.4861111111111,320.4,347.4861111111111,324,349.25,324C351.0138888888889,324,351.0138888888889,327.6,352.77777777777777,327.6C354.54166666666663,327.6,354.54166666666663,338.4,356.30555555555554,338.4C358.06944444444446,338.4,358.06944444444446,295.20000000000005,359.8333333333333,295.20000000000005C361.5972222222222,295.20000000000005,361.5972222222222,320.4,363.3611111111111,320.4C365.125,320.4,365.125,316.8,366.88888888888886,316.8C368.65277777777777,316.8,368.65277777777777,331.2,370.4166666666667,331.2C372.18055555555554,331.2,372.18055555555554,331.2,373.94444444444446,331.2C375.70833333333337,331.2,375.70833333333337,334.79999999999995,377.47222222222223,334.79999999999995C379.2361111111111,334.79999999999995,379.2361111111111,295.20000000000005,381,295.20000000000005C382.7638888888889,295.20000000000005,382.7638888888889,262.8,384.52777777777777,262.8C386.2916666666667,262.8,386.2916666666667,226.8,388.0555555555556,226.8C389.81944444444446,226.8,389.81944444444446,255.6,391.58333333333337,255.6C393.3472222222223,255.6,393.3472222222223,298.8,395.11111111111114,298.8C396.875,298.8,396.875,309.6,398.63888888888886,309.6C400.4027777777777,309.6,400.4027777777777,262.8,402.16666666666663,262.8C403.93055555555554,262.8,403.93055555555554,262.8,405.6944444444444,262.8C407.4583333333333,262.8,407.4583333333333,298.8,409.22222222222223,298.8C410.9861111111111,298.8,410.9861111111111,313.2,412.75,313.2C414.5138888888889,313.2,414.5138888888889,320.4,416.27777777777777,320.4C418.04166666666663,320.4,418.04166666666663,334.79999999999995,419.80555555555554,334.79999999999995C421.56944444444446,334.79999999999995,421.56944444444446,331.2,423.3333333333333,331.2C425.09722222222223,331.2,425.09722222222223,316.8,426.86111111111114,316.8C428.625,316.8,428.625,320.4,430.3888888888889,320.4C432.1527777777778,320.4,432.1527777777778,273.6,433.9166666666667,273.6C435.68055555555554,273.6,435.68055555555554,291.6,437.44444444444446,291.6C439.20833333333337,291.6,439.20833333333337,288,440.97222222222223,288C442.7361111111111,288,442.7361111111111,295.20000000000005,444.5,295.20000000000005C446.2638888888889,295.20000000000005,446.2638888888889,280.8,448.0277777777778,280.8C449.79166666666674,280.8,449.79166666666674,302.4,451.5555555555556,302.4C453.31944444444446,302.4,453.31944444444446,291.6,455.0833333333333,291.6C456.8472222222222,291.6,456.8472222222222,313.2,458.6111111111111,313.2C460.375,313.2,460.375,295.20000000000005,462.13888888888886,295.20000000000005C463.9027777777777,295.20000000000005,463.9027777777777,309.6,465.66666666666663,309.6C467.43055555555554,309.6,467.43055555555554,306,469.19444444444446,306C470.95833333333337,306,470.95833333333337,280.8,472.72222222222223,280.8C474.4861111111111,280.8,474.4861111111111,302.4,476.25,302.4C478.0138888888889,302.4,478.0138888888889,313.2,479.77777777777777,313.2C481.54166666666663,313.2,481.54166666666663,309.6,483.30555555555554,309.6C485.06944444444446,309.6,485.06944444444446,313.2,486.83333333333337,313.2C488.5972222222223,313.2,488.5972222222223,302.4,490.36111111111114,302.4C492.125,302.4,492.125,316.8,493.8888888888889,316.8C495.6527777777778,316.8,495.6527777777778,313.2,497.4166666666667,313.2C499.18055555555554,313.2,499.18055555555554,320.4,500.9444444444444,320.4C502.70833333333326,320.4,502.70833333333326,309.6,504.4722222222222,309.6C506.2361111111111,309.6,506.2361111111111,309.6,508,309.6C509.7638888888889,309.6,509.7638888888889,316.8,511.52777777777777,316.8C513.2916666666666,316.8,513.2916666666666,327.6,515.0555555555555,327.6C516.8194444444445,327.6,516.8194444444445,298.8,518.5833333333334,298.8C520.3472222222222,298.8,520.3472222222222,226.8,522.1111111111111,226.8C523.875,226.8,523.875,277.2,525.6388888888888,277.2C527.4027777777778,277.2,527.4027777777778,291.6,529.1666666666667,291.6C530.9305555555557,291.6,530.9305555555557,306,532.6944444444445,306C534.4583333333333,306,534.4583333333333,313.2,536.2222222222222,313.2C537.9861111111111,313.2,537.9861111111111,313.2,539.75,313.2C541.5138888888889,313.2,541.5138888888889,316.8,543.2777777777777,316.8C545.0416666666666,316.8,545.0416666666666,320.4,546.8055555555555,320.4C548.5694444444445,320.4,548.5694444444445,324,550.3333333333334,324C552.0972222222222,324,552.0972222222222,316.8,553.8611111111111,316.8C555.625,316.8,555.625,320.4,557.3888888888889,320.4C559.1527777777778,320.4,559.1527777777778,331.2,560.9166666666666,331.2C562.6805555555555,331.2,562.6805555555555,324,564.4444444444445,324C566.2083333333334,324,566.2083333333334,320.4,567.9722222222223,320.4C569.7361111111111,320.4,569.7361111111111,320.4,571.5,320.4C573.2638888888889,320.4,573.2638888888889,309.6,575.0277777777778,309.6C576.7916666666667,309.6,576.7916666666667,327.6,578.5555555555555,327.6C580.3194444444443,327.6,580.3194444444443,313.2,582.0833333333333,313.2C583.8472222222222,313.2,583.8472222222222,309.6,585.6111111111112,309.6C587.375,309.6,587.375,324,589.1388888888889,324" stroke="#f8e71c" fill="none"/><text font-family="sans-serif" font-size="10" class="labels" x="169.33333333333334" y="212.40000000000003" dx="0" dy="-4" text-anchor="middle">Patricia Bullrich</text></g><g id="Myriam Bregman"><path d="M0,349.2C1.763888888888889,349.2,1.763888888888889,352.8,3.527777777777778,352.8C5.291666666666667,352.8,5.291666666666667,356.4,7.055555555555556,356.4C8.819444444444445,356.4,8.819444444444445,356.4,10.583333333333334,356.4C12.347222222222223,356.4,12.347222222222223,356.4,14.111111111111112,356.4C15.875,356.4,15.875,356.4,17.63888888888889,356.4C19.40277777777778,356.4,19.40277777777778,356.4,21.166666666666668,356.4C22.930555555555557,356.4,22.930555555555557,356.4,24.694444444444446,356.4C26.458333333333336,356.4,26.458333333333336,352.8,28.222222222222225,352.8C29.986111111111114,352.8,29.986111111111114,352.8,31.75,352.8C33.513888888888886,352.8,33.513888888888886,352.8,35.27777777777778,352.8C37.04166666666667,352.8,37.04166666666667,360,38.80555555555556,360C40.56944444444444,360,40.56944444444444,356.4,42.333333333333336,356.4C44.09722222222222,356.4,44.09722222222222,360,45.86111111111111,360C47.625,360,47.625,352.8,49.38888888888889,352.8C51.15277777777778,352.8,51.15277777777778,356.4,52.916666666666664,356.4C54.68055555555556,356.4,54.68055555555556,356.4,56.44444444444445,356.4C58.208333333333336,356.4,58.208333333333336,356.4,59.97222222222222,356.4C61.736111111111114,356.4,61.736111111111114,352.8,63.5,352.8C65.26388888888889,352.8,65.26388888888889,356.4,67.02777777777777,356.4C68.79166666666666,356.4,68.79166666666666,352.8,70.55555555555556,352.8C72.31944444444444,352.8,72.31944444444444,356.4,74.08333333333333,356.4C75.84722222222223,356.4,75.84722222222223,352.8,77.61111111111111,352.8C79.375,352.8,79.375,360,81.13888888888889,360C82.90277777777777,360,82.90277777777777,356.4,84.66666666666667,356.4C86.43055555555556,356.4,86.43055555555556,345.59999999999997,88.19444444444444,345.59999999999997C89.95833333333333,345.59999999999997,89.95833333333333,349.2,91.72222222222221,349.2C93.48611111111111,349.2,93.48611111111111,352.8,95.25,352.8C97.01388888888889,352.8,97.01388888888889,349.2,98.77777777777779,349.2C100.54166666666667,349.2,100.54166666666667,345.59999999999997,102.30555555555556,345.59999999999997C104.06944444444444,345.59999999999997,104.06944444444444,349.2,105.83333333333333,349.2C107.59722222222223,349.2,107.59722222222223,356.4,109.36111111111111,356.4C111.125,356.4,111.125,356.4,112.8888888888889,356.4C114.65277777777777,356.4,114.65277777777777,352.8,116.41666666666666,352.8C118.18055555555554,352.8,118.18055555555554,345.59999999999997,119.94444444444444,345.59999999999997C121.70833333333334,345.59999999999997,121.70833333333334,342,123.47222222222223,342C125.23611111111111,342,125.23611111111111,352.8,127,352.8C128.76388888888889,352.8,128.76388888888889,349.2,130.52777777777777,349.2C132.29166666666666,349.2,132.29166666666666,352.8,134.05555555555554,352.8C135.81944444444446,352.8,135.81944444444446,349.2,137.58333333333334,349.2C139.34722222222223,349.2,139.34722222222223,234,141.11111111111111,234C142.875,234,142.875,241.2,144.63888888888889,241.2C146.40277777777777,241.2,146.40277777777777,309.6,148.16666666666666,309.6C149.93055555555554,309.6,149.93055555555554,327.6,151.69444444444446,327.6C153.45833333333334,327.6,153.45833333333334,327.6,155.22222222222223,327.6C156.98611111111111,327.6,156.98611111111111,288,158.75,288C160.51388888888889,288,160.51388888888889,313.2,162.27777777777777,313.2C164.04166666666669,313.2,164.04166666666669,334.79999999999995,165.80555555555557,334.79999999999995C167.56944444444446,334.79999999999995,167.56944444444446,320.4,169.33333333333334,320.4C171.09722222222223,320.4,171.09722222222223,324,172.8611111111111,324C174.625,324,174.625,313.2,176.38888888888889,313.2C178.15277777777777,313.2,178.15277777777777,320.4,179.91666666666666,320.4C181.68055555555554,320.4,181.68055555555554,338.4,183.44444444444443,338.4C185.20833333333331,338.4,185.20833333333331,331.2,186.97222222222223,331.2C188.73611111111111,331.2,188.73611111111111,129.6,190.5,129.6C192.2638888888889,129.6,192.2638888888889,21.60000000000002,194.0277777777778,21.60000000000002C195.79166666666669,21.60000000000002,195.79166666666669,183.6,197.55555555555557,183.6C199.31944444444446,183.6,199.31944444444446,273.6,201.08333333333331,273.6C202.84722222222223,273.6,202.84722222222223,302.4,204.61111111111111,302.4C206.375,302.4,206.375,324,208.13888888888889,324C209.90277777777777,324,209.90277777777777,313.2,211.66666666666666,313.2C213.43055555555554,313.2,213.43055555555554,277.2,215.19444444444446,277.2C216.95833333333334,277.2,216.95833333333334,273.6,218.72222222222223,273.6C220.48611111111111,273.6,220.48611111111111,302.4,222.25,302.4C224.0138888888889,302.4,224.0138888888889,309.6,225.7777777777778,309.6C227.54166666666669,309.6,227.54166666666669,306,229.30555555555554,306C231.06944444444443,306,231.06944444444443,288,232.83333333333331,288C234.59722222222223,288,234.59722222222223,270,236.36111111111111,270C238.125,270,238.125,313.2,239.88888888888889,313.2C241.65277777777777,313.2,241.65277777777777,324,243.41666666666669,324C245.18055555555557,324,245.18055555555557,320.4,246.94444444444446,320.4C248.70833333333331,320.4,248.70833333333331,331.2,250.4722222222222,331.2C252.2361111111111,331.2,252.2361111111111,327.6,254,327.6C255.76388888888889,327.6,255.76388888888889,331.2,257.52777777777777,331.2C259.29166666666663,331.2,259.29166666666663,298.8,261.05555555555554,298.8C262.81944444444446,298.8,262.81944444444446,115.19999999999999,264.58333333333337,115.19999999999999C266.34722222222223,115.19999999999999,266.34722222222223,176.4,268.1111111111111,176.4C269.875,176.4,269.875,259.2,271.63888888888886,259.2C273.40277777777777,259.2,273.40277777777777,291.6,275.1666666666667,291.6C276.93055555555554,291.6,276.93055555555554,291.6,278.69444444444446,291.6C280.45833333333337,291.6,280.45833333333337,302.4,282.22222222222223,302.4C283.9861111111111,302.4,283.9861111111111,309.6,285.75,309.6C287.5138888888889,309.6,287.5138888888889,306,289.27777777777777,306C291.0416666666667,306,291.0416666666667,309.6,292.8055555555556,309.6C294.56944444444446,309.6,294.56944444444446,324,296.3333333333333,324C298.0972222222222,324,298.0972222222222,309.6,299.8611111111111,309.6C301.625,309.6,301.625,313.2,303.3888888888889,313.2C305.1527777777778,313.2,305.1527777777778,320.4,306.9166666666667,320.4C308.68055555555554,320.4,308.68055555555554,309.6,310.44444444444446,309.6C312.20833333333337,309.6,312.20833333333337,280.8,313.97222222222223,280.8C315.7361111111111,280.8,315.7361111111111,313.2,317.5,313.2C319.2638888888889,313.2,319.2638888888889,320.4,321.02777777777777,320.4C322.79166666666663,320.4,322.79166666666663,309.6,324.55555555555554,309.6C326.31944444444446,309.6,326.31944444444446,316.8,328.08333333333337,316.8C329.8472222222223,316.8,329.8472222222223,320.4,331.61111111111114,320.4C333.375,320.4,333.375,324,335.1388888888889,324C336.9027777777778,324,336.9027777777778,316.8,338.6666666666667,316.8C340.43055555555554,316.8,340.43055555555554,331.2,342.1944444444444,331.2C343.95833333333326,331.2,343.95833333333326,306,345.7222222222222,306C347.4861111111111,306,347.4861111111111,320.4,349.25,320.4C351.0138888888889,320.4,351.0138888888889,331.2,352.77777777777777,331.2C354.54166666666663,331.2,354.54166666666663,234,356.30555555555554,234C358.06944444444446,234,358.06944444444446,277.2,359.8333333333333,277.2C361.5972222222222,277.2,361.5972222222222,198.00000000000003,363.3611111111111,198.00000000000003C365.125,198.00000000000003,365.125,194.4,366.88888888888886,194.4C368.65277777777777,194.4,368.65277777777777,280.8,370.4166666666667,280.8C372.18055555555554,280.8,372.18055555555554,298.8,373.94444444444446,298.8C375.70833333333337,298.8,375.70833333333337,248.39999999999998,377.47222222222223,248.39999999999998C379.2361111111111,248.39999999999998,379.2361111111111,288,381,288C382.7638888888889,288,382.7638888888889,316.8,384.52777777777777,316.8C386.2916666666667,316.8,386.2916666666667,309.6,388.0555555555556,309.6C389.81944444444446,309.6,389.81944444444446,284.40000000000003,391.58333333333337,284.40000000000003C393.3472222222223,284.40000000000003,393.3472222222223,309.6,395.11111111111114,309.6C396.875,309.6,396.875,309.6,398.63888888888886,309.6C400.4027777777777,309.6,400.4027777777777,331.2,402.16666666666663,331.2C403.93055555555554,331.2,403.93055555555554,320.4,405.6944444444444,320.4C407.4583333333333,320.4,407.4583333333333,255.6,409.22222222222223,255.6C410.9861111111111,255.6,410.9861111111111,284.40000000000003,412.75,284.40000000000003C414.5138888888889,284.40000000000003,414.5138888888889,284.40000000000003,416.27777777777777,284.40000000000003C418.04166666666663,284.40000000000003,418.04166666666663,277.2,419.80555555555554,277.2C421.56944444444446,277.2,421.56944444444446,309.6,423.3333333333333,309.6C425.09722222222223,309.6,425.09722222222223,251.99999999999997,426.86111111111114,251.99999999999997C428.625,251.99999999999997,428.625,187.20000000000002,430.3888888888889,187.20000000000002C432.1527777777778,187.20000000000002,432.1527777777778,266.4,433.9166666666667,266.4C435.68055555555554,266.4,435.68055555555554,266.4,437.44444444444446,266.4C439.20833333333337,266.4,439.20833333333337,291.6,440.97222222222223,291.6C442.7361111111111,291.6,442.7361111111111,309.6,444.5,309.6C446.2638888888889,309.6,446.2638888888889,251.99999999999997,448.0277777777778,251.99999999999997C449.79166666666674,251.99999999999997,449.79166666666674,230.4,451.5555555555556,230.4C453.31944444444446,230.4,453.31944444444446,288,455.0833333333333,288C456.8472222222222,288,456.8472222222222,288,458.6111111111111,288C460.375,288,460.375,288,462.13888888888886,288C463.9027777777777,288,463.9027777777777,306,465.66666666666663,306C467.43055555555554,306,467.43055555555554,309.6,469.19444444444446,309.6C470.95833333333337,309.6,470.95833333333337,277.2,472.72222222222223,277.2C474.4861111111111,277.2,474.4861111111111,248.39999999999998,476.25,248.39999999999998C478.0138888888889,248.39999999999998,478.0138888888889,284.40000000000003,479.77777777777777,284.40000000000003C481.54166666666663,284.40000000000003,481.54166666666663,291.6,483.30555555555554,291.6C485.06944444444446,291.6,485.06944444444446,316.8,486.83333333333337,316.8C488.5972222222223,316.8,488.5972222222223,298.8,490.36111111111114,298.8C492.125,298.8,492.125,313.2,493.8888888888889,313.2C495.6527777777778,313.2,495.6527777777778,324,497.4166666666667,324C499.18055555555554,324,499.18055555555554,327.6,500.9444444444444,327.6C502.70833333333326,327.6,502.70833333333326,320.4,504.4722222222222,320.4C506.2361111111111,320.4,506.2361111111111,338.4,508,338.4C509.7638888888889,338.4,509.7638888888889,302.4,511.52777777777777,302.4C513.2916666666666,302.4,513.2916666666666,244.79999999999998,515.0555555555555,244.79999999999998C516.8194444444445,244.79999999999998,516.8194444444445,306,518.5833333333334,306C520.3472222222222,306,520.3472222222222,302.4,522.1111111111111,302.4C523.875,302.4,523.875,298.8,525.6388888888888,298.8C527.4027777777778,298.8,527.4027777777778,313.2,529.1666666666667,313.2C530.9305555555557,313.2,530.9305555555557,320.4,532.6944444444445,320.4C534.4583333333333,320.4,534.4583333333333,291.6,536.2222222222222,291.6C537.9861111111111,291.6,537.9861111111111,313.2,539.75,313.2C541.5138888888889,313.2,541.5138888888889,324,543.2777777777777,324C545.0416666666666,324,545.0416666666666,309.6,546.8055555555555,309.6C548.5694444444445,309.6,548.5694444444445,316.8,550.3333333333334,316.8C552.0972222222222,316.8,552.0972222222222,320.4,553.8611111111111,320.4C555.625,320.4,555.625,313.2,557.3888888888889,313.2C559.1527777777778,313.2,559.1527777777778,302.4,560.9166666666666,302.4C562.6805555555555,302.4,562.6805555555555,277.2,564.4444444444445,277.2C566.2083333333334,277.2,566.2083333333334,266.4,567.9722222222223,266.4C569.7361111111111,266.4,569.7361111111111,273.6,571.5,273.6C573.2638888888889,273.6,573.2638888888889,284.40000000000003,575.0277777777778,284.40000000000003C576.7916666666667,284.40000000000003,576.7916666666667,320.4,578.5555555555555,320.4C580.3194444444443,320.4,580.3194444444443,298.8,582.0833333333333,298.8C583.8472222222222,298.8,583.8472222222222,313.2,585.6111111111112,313.2C587.375,313.2,587.375,316.8,589.1388888888889,316.8" stroke="#d0021b" fill="none"/><text font-family="sans-serif" font-size="10" class="labels" x="194.0277777777778" y="21.60000000000002" dx="0" dy="-4" text-anchor="middle">Myriam Bregman</text></g><g id="Juan Schiaretti"><path d="M0,352.8C1.763888888888889,352.8,1.763888888888889,352.8,3.527777777777778,352.8C5.291666666666667,352.8,5.291666666666667,349.2,7.055555555555556,349.2C8.819444444444445,349.2,8.819444444444445,356.4,10.583333333333334,356.4C12.347222222222223,356.4,12.347222222222223,352.8,14.111111111111112,352.8C15.875,352.8,15.875,352.8,17.63888888888889,352.8C19.40277777777778,352.8,19.40277777777778,356.4,21.166666666666668,356.4C22.930555555555557,356.4,22.930555555555557,345.59999999999997,24.694444444444446,345.59999999999997C26.458333333333336,345.59999999999997,26.458333333333336,345.59999999999997,28.222222222222225,345.59999999999997C29.986111111111114,345.59999999999997,29.986111111111114,356.4,31.75,356.4C33.513888888888886,356.4,33.513888888888886,352.8,35.27777777777778,352.8C37.04166666666667,352.8,37.04166666666667,352.8,38.80555555555556,352.8C40.56944444444444,352.8,40.56944444444444,356.4,42.333333333333336,356.4C44.09722222222222,356.4,44.09722222222222,356.4,45.86111111111111,356.4C47.625,356.4,47.625,352.8,49.38888888888889,352.8C51.15277777777778,352.8,51.15277777777778,356.4,52.916666666666664,356.4C54.68055555555556,356.4,54.68055555555556,356.4,56.44444444444445,356.4C58.208333333333336,356.4,58.208333333333336,356.4,59.97222222222222,356.4C61.736111111111114,356.4,61.736111111111114,352.8,63.5,352.8C65.26388888888889,352.8,65.26388888888889,352.8,67.02777777777777,352.8C68.79166666666666,352.8,68.79166666666666,352.8,70.55555555555556,352.8C72.31944444444444,352.8,72.31944444444444,356.4,74.08333333333333,356.4C75.84722222222223,356.4,75.84722222222223,352.8,77.61111111111111,352.8C79.375,352.8,79.375,356.4,81.13888888888889,356.4C82.90277777777777,356.4,82.90277777777777,356.4,84.66666666666667,356.4C86.43055555555556,356.4,86.43055555555556,352.8,88.19444444444444,352.8C89.95833333333333,352.8,89.95833333333333,356.4,91.72222222222221,356.4C93.48611111111111,356.4,93.48611111111111,352.8,95.25,352.8C97.01388888888889,352.8,97.01388888888889,349.2,98.77777777777779,349.2C100.54166666666667,349.2,100.54166666666667,352.8,102.30555555555556,352.8C104.06944444444444,352.8,104.06944444444444,352.8,105.83333333333333,352.8C107.59722222222223,352.8,107.59722222222223,352.8,109.36111111111111,352.8C111.125,352.8,111.125,356.4,112.8888888888889,356.4C114.65277777777777,356.4,114.65277777777777,356.4,116.41666666666666,356.4C118.18055555555554,356.4,118.18055555555554,349.2,119.94444444444444,349.2C121.70833333333334,349.2,121.70833333333334,352.8,123.47222222222223,352.8C125.23611111111111,352.8,125.23611111111111,356.4,127,356.4C128.76388888888889,356.4,128.76388888888889,313.2,130.52777777777777,313.2C132.29166666666666,313.2,132.29166666666666,208.8,134.05555555555554,208.8C135.81944444444446,208.8,135.81944444444446,327.6,137.58333333333334,327.6C139.34722222222223,327.6,139.34722222222223,334.79999999999995,141.11111111111111,334.79999999999995C142.875,334.79999999999995,142.875,342,144.63888888888889,342C146.40277777777777,342,146.40277777777777,342,148.16666666666666,342C149.93055555555554,342,149.93055555555554,345.59999999999997,151.69444444444446,345.59999999999997C153.45833333333334,345.59999999999997,153.45833333333334,338.4,155.22222222222223,338.4C156.98611111111111,338.4,156.98611111111111,291.6,158.75,291.6C160.51388888888889,291.6,160.51388888888889,226.8,162.27777777777777,226.8C164.04166666666669,226.8,164.04166666666669,313.2,165.80555555555557,313.2C167.56944444444446,313.2,167.56944444444446,183.6,169.33333333333334,183.6C171.09722222222223,183.6,171.09722222222223,0,172.8611111111111,0C174.625,0,174.625,3.600000000000003,176.38888888888889,3.600000000000003C178.15277777777777,3.600000000000003,178.15277777777777,234,179.91666666666666,234C181.68055555555554,234,181.68055555555554,306,183.44444444444443,306C185.20833333333331,306,185.20833333333331,320.4,186.97222222222223,320.4C188.73611111111111,320.4,188.73611111111111,277.2,190.5,277.2C192.2638888888889,277.2,192.2638888888889,291.6,194.0277777777778,291.6C195.79166666666669,291.6,195.79166666666669,298.8,197.55555555555557,298.8C199.31944444444446,298.8,199.31944444444446,316.8,201.08333333333331,316.8C202.84722222222223,316.8,202.84722222222223,320.4,204.61111111111111,320.4C206.375,320.4,206.375,259.2,208.13888888888889,259.2C209.90277777777777,259.2,209.90277777777777,165.6,211.66666666666666,165.6C213.43055555555554,165.6,213.43055555555554,273.6,215.19444444444446,273.6C216.95833333333334,273.6,216.95833333333334,71.99999999999999,218.72222222222223,71.99999999999999C220.48611111111111,71.99999999999999,220.48611111111111,21.60000000000002,222.25,21.60000000000002C224.0138888888889,21.60000000000002,224.0138888888889,158.39999999999998,225.7777777777778,158.39999999999998C227.54166666666669,158.39999999999998,227.54166666666669,248.39999999999998,229.30555555555554,248.39999999999998C231.06944444444443,248.39999999999998,231.06944444444443,291.6,232.83333333333331,291.6C234.59722222222223,291.6,234.59722222222223,298.8,236.36111111111111,298.8C238.125,298.8,238.125,251.99999999999997,239.88888888888889,251.99999999999997C241.65277777777777,251.99999999999997,241.65277777777777,244.79999999999998,243.41666666666669,244.79999999999998C245.18055555555557,244.79999999999998,245.18055555555557,295.20000000000005,246.94444444444446,295.20000000000005C248.70833333333331,295.20000000000005,248.70833333333331,313.2,250.4722222222222,313.2C252.2361111111111,313.2,252.2361111111111,161.99999999999997,254,161.99999999999997C255.76388888888889,161.99999999999997,255.76388888888889,198.00000000000003,257.52777777777777,198.00000000000003C259.29166666666663,198.00000000000003,259.29166666666663,208.8,261.05555555555554,208.8C262.81944444444446,208.8,262.81944444444446,259.2,264.58333333333337,259.2C266.34722222222223,259.2,266.34722222222223,277.2,268.1111111111111,277.2C269.875,277.2,269.875,298.8,271.63888888888886,298.8C273.40277777777777,298.8,273.40277777777777,291.6,275.1666666666667,291.6C276.93055555555554,291.6,276.93055555555554,316.8,278.69444444444446,316.8C280.45833333333337,316.8,280.45833333333337,331.2,282.22222222222223,331.2C283.9861111111111,331.2,283.9861111111111,345.59999999999997,285.75,345.59999999999997C287.5138888888889,345.59999999999997,287.5138888888889,324,289.27777777777777,324C291.0416666666667,324,291.0416666666667,316.8,292.8055555555556,316.8C294.56944444444446,316.8,294.56944444444446,320.4,296.3333333333333,320.4C298.0972222222222,320.4,298.0972222222222,316.8,299.8611111111111,316.8C301.625,316.8,301.625,309.6,303.3888888888889,309.6C305.1527777777778,309.6,305.1527777777778,316.8,306.9166666666667,316.8C308.68055555555554,316.8,308.68055555555554,309.6,310.44444444444446,309.6C312.20833333333337,309.6,312.20833333333337,316.8,313.97222222222223,316.8C315.7361111111111,316.8,315.7361111111111,320.4,317.5,320.4C319.2638888888889,320.4,319.2638888888889,324,321.02777777777777,324C322.79166666666663,324,322.79166666666663,320.4,324.55555555555554,320.4C326.31944444444446,320.4,326.31944444444446,324,328.08333333333337,324C329.8472222222223,324,329.8472222222223,334.79999999999995,331.61111111111114,334.79999999999995C333.375,334.79999999999995,333.375,334.79999999999995,335.1388888888889,334.79999999999995C336.9027777777778,334.79999999999995,336.9027777777778,324,338.6666666666667,324C340.43055555555554,324,340.43055555555554,327.6,342.1944444444444,327.6C343.95833333333326,327.6,343.95833333333326,320.4,345.7222222222222,320.4C347.4861111111111,320.4,347.4861111111111,338.4,349.25,338.4C351.0138888888889,338.4,351.0138888888889,338.4,352.77777777777777,338.4C354.54166666666663,338.4,354.54166666666663,349.2,356.30555555555554,349.2C358.06944444444446,349.2,358.06944444444446,331.2,359.8333333333333,331.2C361.5972222222222,331.2,361.5972222222222,334.79999999999995,363.3611111111111,334.79999999999995C365.125,334.79999999999995,365.125,334.79999999999995,366.88888888888886,334.79999999999995C368.65277777777777,334.79999999999995,368.65277777777777,334.79999999999995,370.4166666666667,334.79999999999995C372.18055555555554,334.79999999999995,372.18055555555554,338.4,373.94444444444446,338.4C375.70833333333337,338.4,375.70833333333337,345.59999999999997,377.47222222222223,345.59999999999997C379.2361111111111,345.59999999999997,379.2361111111111,349.2,381,349.2C382.7638888888889,349.2,382.7638888888889,327.6,384.52777777777777,327.6C386.2916666666667,327.6,386.2916666666667,266.4,388.0555555555556,266.4C389.81944444444446,266.4,389.81944444444446,54.00000000000001,391.58333333333337,54.00000000000001C393.3472222222223,54.00000000000001,393.3472222222223,64.80000000000001,395.11111111111114,64.80000000000001C396.875,64.80000000000001,396.875,198.00000000000003,398.63888888888886,198.00000000000003C400.4027777777777,198.00000000000003,400.4027777777777,277.2,402.16666666666663,277.2C403.93055555555554,277.2,403.93055555555554,194.4,405.6944444444444,194.4C407.4583333333333,194.4,407.4583333333333,280.8,409.22222222222223,280.8C410.9861111111111,280.8,410.9861111111111,306,412.75,306C414.5138888888889,306,414.5138888888889,230.4,416.27777777777777,230.4C418.04166666666663,230.4,418.04166666666663,216,419.80555555555554,216C421.56944444444446,216,421.56944444444446,270,423.3333333333333,270C425.09722222222223,270,425.09722222222223,212.40000000000003,426.86111111111114,212.40000000000003C428.625,212.40000000000003,428.625,270,430.3888888888889,270C432.1527777777778,270,432.1527777777778,194.4,433.9166666666667,194.4C435.68055555555554,194.4,435.68055555555554,273.6,437.44444444444446,273.6C439.20833333333337,273.6,439.20833333333337,169.2,440.97222222222223,169.2C442.7361111111111,169.2,442.7361111111111,216,444.5,216C446.2638888888889,216,446.2638888888889,237.59999999999997,448.0277777777778,237.59999999999997C449.79166666666674,237.59999999999997,449.79166666666674,251.99999999999997,451.5555555555556,251.99999999999997C453.31944444444446,251.99999999999997,453.31944444444446,291.6,455.0833333333333,291.6C456.8472222222222,291.6,456.8472222222222,331.2,458.6111111111111,331.2C460.375,331.2,460.375,320.4,462.13888888888886,320.4C463.9027777777777,320.4,463.9027777777777,234,465.66666666666663,234C467.43055555555554,234,467.43055555555554,262.8,469.19444444444446,262.8C470.95833333333337,262.8,470.95833333333337,306,472.72222222222223,306C474.4861111111111,306,474.4861111111111,266.4,476.25,266.4C478.0138888888889,266.4,478.0138888888889,251.99999999999997,479.77777777777777,251.99999999999997C481.54166666666663,251.99999999999997,481.54166666666663,280.8,483.30555555555554,280.8C485.06944444444446,280.8,485.06944444444446,298.8,486.83333333333337,298.8C488.5972222222223,298.8,488.5972222222223,302.4,490.36111111111114,302.4C492.125,302.4,492.125,295.20000000000005,493.8888888888889,295.20000000000005C495.6527777777778,295.20000000000005,495.6527777777778,320.4,497.4166666666667,320.4C499.18055555555554,320.4,499.18055555555554,316.8,500.9444444444444,316.8C502.70833333333326,316.8,502.70833333333326,324,504.4722222222222,324C506.2361111111111,324,506.2361111111111,324,508,324C509.7638888888889,324,509.7638888888889,320.4,511.52777777777777,320.4C513.2916666666666,320.4,513.2916666666666,320.4,515.0555555555555,320.4C516.8194444444445,320.4,516.8194444444445,320.4,518.5833333333334,320.4C520.3472222222222,320.4,520.3472222222222,248.39999999999998,522.1111111111111,248.39999999999998C523.875,248.39999999999998,523.875,68.39999999999998,525.6388888888888,68.39999999999998C527.4027777777778,68.39999999999998,527.4027777777778,237.59999999999997,529.1666666666667,237.59999999999997C530.9305555555557,237.59999999999997,530.9305555555557,288,532.6944444444445,288C534.4583333333333,288,534.4583333333333,298.8,536.2222222222222,298.8C537.9861111111111,298.8,537.9861111111111,309.6,539.75,309.6C541.5138888888889,309.6,541.5138888888889,313.2,543.2777777777777,313.2C545.0416666666666,313.2,545.0416666666666,320.4,546.8055555555555,320.4C548.5694444444445,320.4,548.5694444444445,316.8,550.3333333333334,316.8C552.0972222222222,316.8,552.0972222222222,316.8,553.8611111111111,316.8C555.625,316.8,555.625,316.8,557.3888888888889,316.8C559.1527777777778,316.8,559.1527777777778,309.6,560.9166666666666,309.6C562.6805555555555,309.6,562.6805555555555,316.8,564.4444444444445,316.8C566.2083333333334,316.8,566.2083333333334,334.79999999999995,567.9722222222223,334.79999999999995C569.7361111111111,334.79999999999995,569.7361111111111,338.4,571.5,338.4C573.2638888888889,338.4,573.2638888888889,324,575.0277777777778,324C576.7916666666667,324,576.7916666666667,331.2,578.5555555555555,331.2C580.3194444444443,331.2,580.3194444444443,309.6,582.0833333333333,309.6C583.8472222222222,309.6,583.8472222222222,334.79999999999995,585.6111111111112,334.79999999999995C587.375,334.79999999999995,587.375,331.2,589.1388888888889,331.2" stroke="#7ed321" fill="none"/><text font-family="sans-serif" font-size="10" class="labels" x="172.8611111111111" y="0" dx="0" dy="-4" text-anchor="middle">Juan Schiaretti</text></g></g></g><text y="4" x="4" style="font-family: Arial, sans-serif; font-size: 12px; fill: black; font-weight: bold; dominant-baseline: hanging;"/></g><g id="grid"><rect x="0" y="0" width="700" height="400" fill="none" stroke="#ccc"/></g></g></svg>